<?xml version="1.0" standalone="no"?>
<!DOCTYPE svg PUBLIC "-//W3C//DTD SVG 20010904//EN"
 "http://www.w3.org/TR/2001/REC-SVG-20010904/DTD/svg10.dtd">
<svg version="1.0" xmlns="http://www.w3.org/2000/svg"
 width="256.000000pt" height="256.000000pt" viewBox="0 0 256.000000 256.000000"
 preserveAspectRatio="xMidYMid meet">
<metadata>
Created by potrace 1.16, written by Peter Selinger 2001-2019
</metadata>
<g transform="translate(0.000000,256.000000) scale(0.100000,-0.100000)"
fill="#000000" stroke="none">
<path d="M510 1490 c0 -25 9 -34 75 -71 l75 -43 0 -96 0 -96 -75 -43 c-67 -39
-75 -47 -75 -73 l0 -29 28 19 c15 10 57 35 94 55 77 43 75 38 68 190 l-5 108
-92 54 -93 54 0 -29z"/>
<path d="M1210 1285 l0 -135 30 0 30 0 0 135 0 135 -30 0 -30 0 0 -135z"/>
<path d="M1310 1286 l0 -136 35 0 36 0 -3 133 -3 132 -32 3 -33 3 0 -135z"/>
<path d="M2080 1285 l0 -135 30 0 c22 0 30 5 30 18 0 18 18 42 31 42 4 0 12
-13 19 -30 11 -26 18 -30 51 -30 l39 0 -35 55 c-19 30 -35 58 -35 63 0 4 14
21 30 37 38 37 38 45 -2 45 -26 0 -39 -8 -58 -34 -25 -35 -42 -38 -39 -8 1 10
1 38 0 65 -1 45 -2 47 -31 47 l-30 0 0 -135z"/>
<path d="M855 1398 c-3 -8 -4 -66 -3 -129 l3 -114 90 -3 c102 -3 121 5 131 55
5 26 2 36 -18 54 -24 22 -24 23 -6 41 23 23 23 50 -1 79 -17 21 -29 24 -105
28 -67 2 -87 0 -91 -11z"/>
<path d="M1418 1280 l-3 -130 73 0 c116 0 162 38 162 134 0 83 -62 125 -182
126 l-47 0 -3 -130z"/>
<path d="M1727 1339 c-43 -25 -60 -109 -31 -154 29 -45 124 -57 155 -19 17 21
-14 55 -33 36 -15 -15 -51 -15 -66 0 -22 22 -12 28 53 28 l65 0 0 31 c0 64
-86 111 -143 78z"/>
<path d="M1915 1325 c-41 -40 -28 -75 40 -100 25 -10 45 -22 45 -26 0 -13 -47
-11 -72 2 -16 9 -23 8 -29 -2 -16 -26 -9 -36 32 -48 73 -22 119 2 119 63 0 28
-27 50 -73 62 -15 3 -26 11 -24 18 5 12 20 13 54 2 16 -5 25 -2 33 14 9 17 7
22 -15 30 -45 17 -84 12 -110 -15z"/>
</g>
</svg>
