<?xml version="1.0" standalone="no"?>
<!DOCTYPE svg PUBLIC "-//W3C//DTD SVG 20010904//EN"
 "http://www.w3.org/TR/2001/REC-SVG-20010904/DTD/svg10.dtd">
<svg version="1.0" xmlns="http://www.w3.org/2000/svg"
 width="3000.000000pt" height="2000.000000pt" viewBox="0 0 3000.000000 2000.000000"
 preserveAspectRatio="xMidYMid meet">
<metadata>
Created by potrace 1.16, written by Peter Selinger 2001-2019
</metadata>
<g transform="translate(0.000000,2000.000000) scale(0.100000,-0.100000)"
fill="#000000" stroke="none">
<path d="M3611 12445 c-53 -17 -107 -66 -132 -120 -18 -39 -19 -135 -19 -2891
l0 -2850 28 -55 c18 -35 42 -64 70 -84 l44 -30 571 -3 c411 -2 584 0 614 9 57
15 117 69 139 124 11 25 21 45 24 45 3 0 4 362 2 805 l-2 805 557 2 c307 1
576 3 598 4 60 3 231 40 321 69 69 22 300 128 314 144 3 3 39 32 80 63 86 65
176 155 241 243 24 33 46 62 50 65 14 13 119 232 138 290 12 36 24 72 28 80 3
8 7 22 8 30 1 8 11 53 21 100 18 80 19 138 19 1040 0 954 0 955 -23 1057 -74
337 -245 612 -497 801 -92 69 -307 175 -420 207 -215 61 -156 59 -1500 62
-1026 2 -1237 0 -1274 -12z m2094 -1511 c45 -24 84 -65 112 -116 17 -31 18
-67 18 -488 0 -447 0 -456 -22 -495 -12 -22 -36 -54 -55 -72 -64 -62 -71 -63
-458 -63 l-350 0 0 630 0 631 358 -3 c343 -3 359 -4 397 -24z"/>
<path d="M12310 12451 c-77 -24 -141 -83 -160 -148 -8 -27 -10 -414 -8 -1343
4 -1287 4 -1306 25 -1400 12 -52 31 -126 43 -165 13 -38 23 -74 25 -80 1 -5 9
-26 18 -46 9 -20 17 -42 19 -50 2 -8 6 -16 9 -19 4 -3 19 -30 34 -60 184 -366
556 -640 987 -730 149 -31 309 -40 696 -40 393 0 396 0 470 -57 45 -34 82
-114 82 -179 0 -90 -60 -178 -147 -216 -21 -10 -225 -14 -828 -18 -737 -5
-803 -7 -840 -23 -50 -23 -91 -61 -118 -112 -22 -40 -22 -45 -22 -615 0 -575
0 -575 22 -616 33 -61 96 -111 157 -124 36 -8 319 -10 991 -7 905 4 944 5
1050 25 218 41 430 128 598 244 79 55 245 197 246 211 1 4 21 32 46 62 175
216 285 496 316 808 6 66 9 891 7 2323 l-3 2221 -30 49 c-19 30 -49 60 -79 79
l-49 30 -581 0 c-641 0 -607 3 -679 -64 -66 -61 -61 29 -67 -1216 l-5 -1130
-21 -40 c-29 -54 -70 -94 -119 -116 -36 -17 -70 -19 -308 -19 -296 0 -313 3
-375 63 -19 18 -43 50 -55 72 l-22 40 -5 1126 -5 1126 -30 49 c-19 30 -49 60
-79 79 l-49 30 -566 2 c-311 1 -577 -2 -591 -6z"/>
<path d="M8432 12437 c-48 -18 -100 -63 -122 -107 -19 -38 -20 -59 -20 -580 0
-513 1 -543 19 -578 22 -43 60 -80 114 -110 37 -21 40 -21 758 -22 682 0 724
-1 764 -19 61 -27 94 -59 121 -116 34 -72 34 -218 0 -290 -27 -58 -57 -88
-108 -110 -31 -13 -96 -15 -400 -15 -200 0 -415 -5 -479 -10 -412 -34 -734
-174 -990 -429 -209 -210 -329 -444 -380 -743 -19 -111 -20 -155 -16 -905 3
-768 4 -790 25 -884 33 -144 59 -223 110 -334 26 -55 49 -102 52 -105 3 -3 27
-39 55 -80 63 -95 228 -261 323 -323 160 -106 345 -180 552 -220 114 -22 121
-22 1190 -22 1025 0 1129 2 1175 20 11 5 42 17 68 27 106 40 211 127 275 228
19 30 38 57 41 60 3 3 7 12 8 20 1 8 9 41 18 72 14 51 15 269 12 2195 l-3
2138 -22 111 c-41 214 -108 389 -208 542 -67 103 -230 269 -324 331 -139 91
-346 176 -520 215 -220 50 -221 50 -1165 52 -676 2 -898 0 -923 -9z m1563
-3382 c26 -16 53 -39 59 -50 6 -11 14 -22 18 -25 24 -19 28 -88 28 -547 0
-473 -1 -488 -21 -530 -11 -24 -37 -57 -57 -73 -66 -55 -112 -62 -394 -58
-237 3 -255 4 -294 25 -55 29 -111 93 -124 142 -7 28 -10 195 -8 513 l3 473
24 43 c27 49 75 91 123 109 23 8 115 11 314 10 l281 -2 48 -30z"/>
</g>
</svg>
